Coordinates
version=1
nRows=17
nColumns=24
inDegrees=yes

Units are S.I. units (second, meters, Newtons, ...)
Angles are in degrees.

endheader
time	pelvis_tilt	pelvis_list	pelvis_rotation	pelvis_tx	pelvis_ty	pelvis_tz	hip_flexion_r	hip_adduction_r	hip_rotation_r	knee_angle_r	ankle_angle_r	subtalar_angle_r	mtp_angle_r	hip_flexion_l	hip_adduction_l	hip_rotation_l	knee_angle_l	ankle_angle_l	subtalar_angle_l	mtp_angle_l	lumbar_extension	lumbar_bending	lumbar_rotation
      4.04000000	    -16.48658186	     -0.63518195	      3.91885488	     -0.28268310	     -0.03130108	     -0.03154540	     38.35497262	      0.43572570	     -7.76636319	     -8.58912014	     -8.93143406	      3.23530562	     14.10558166	     -1.20127292	      2.15455605	     -5.28480632	    -13.18037664	     -0.31379080	     20.06238096	     15.46795115	     12.92521950	      0.22643643	     -7.90283814
      4.04500000	    -16.41709474	     -0.84942411	      4.02289417	     -0.27617801	     -0.03165359	     -0.03146903	     38.09448992	      0.66414678	     -7.56805214	     -8.78874427	     -9.45780249	      2.96429200	     14.13199150	     -1.31392193	      1.75825251	     -5.57187715	    -13.71250389	     -0.71128742	     20.80653651	     16.06712632	     12.92893641	      0.49148166	     -7.95367745
      4.05000000	    -16.41377435	     -1.12794876	      4.17509348	     -0.26967592	     -0.03195535	     -0.03154378	     37.89775929	      0.90317572	     -7.45903416	     -8.96106482	    -10.08267622	      2.69903439	     14.11767673	     -1.31244287	      1.30720726	     -5.71424634	    -14.30843886	     -1.11746347	     21.39339817	     16.51331938	     13.01287119	      0.81751640	     -8.06638564
      4.05500000	    -16.37965208	     -1.42745073	      4.28581635	     -0.26319579	     -0.03212252	     -0.03155205	     37.67076166	      1.19044417	     -7.30594513	     -9.11839283	    -10.78627343	      2.32783067	     14.07059699	     -1.31478935	      0.81418167	     -6.02254604	    -14.93824143	     -1.60200231	     22.05852091	     17.03350971	     13.05916336	      1.17669693	     -8.11631310
      4.06000000	    -16.34878554	     -1.77393314	      4.35881885	     -0.25671177	     -0.03219104	     -0.03156176	     37.45657170	      1.53473194	     -7.13447967	     -9.28927115	    -11.51468100	      1.89509683	     13.92224447	     -1.29117395	      0.26334842	     -6.34526803	    -15.59399118	     -2.14874258	     22.72118423	     17.59692561	     13.11088167	      1.60619925	     -8.13837185
      4.06500000	    -16.35663421	     -2.14123548	      4.50674846	     -0.25021750	     -0.03215821	     -0.03164933	     37.29033893	      1.84006825	     -7.08724027	     -9.49660166	    -12.18543551	      1.40957665	     13.64751722	     -1.17387327	     -0.32100753	     -6.62487164	    -16.32178558	     -2.74746908	     23.45542842	     18.03952488	     13.21604364	      2.02648148	     -8.23124034
      4.07000000	    -16.30935527	     -2.53381097	      4.53588907	     -0.24371801	     -0.03201707	     -0.03164105	     37.08678439	      2.24268285	     -6.88955114	     -9.75812320	    -12.79990311	      0.81127989	     13.10766926	     -1.11230298	     -0.95061966	     -7.08719174	    -17.04821023	     -3.45097220	     24.20187168	     18.70042583	     13.25677160	      2.52347455	     -8.20173079
      4.07500000	    -16.28391268	     -2.93083294	      4.60641392	     -0.23719452	     -0.03178907	     -0.03167658	     36.92278501	      2.61218873	     -6.79152795	    -10.08963394	    -13.27766897	      0.21703171	     12.33218728	     -0.98893539	     -1.59871743	     -7.53671874	    -17.82010675	     -4.26196510	     24.98366807	     19.35875301	     13.33162135	      3.00821033	     -8.20665991
      4.08000000	    -16.33286333	     -3.35723852	      4.78749726	     -0.23063514	     -0.03156048	     -0.03194612	     36.85501160	      2.90019051	     -6.98741507	    -10.46889144	    -13.67031126	     -0.25651829	     11.88556947	     -0.71618827	     -2.26679304	     -7.80780602	    -18.70531932	     -5.04073863	     25.69821853	     19.67901058	     13.51201465	      3.49326393	     -8.33218549
      4.08500000	    -16.22577104	     -3.71494341	      4.75339340	     -0.22406373	     -0.03111908	     -0.03180900	     36.63225369	      3.31098047	     -6.75123293	    -10.93031331	    -13.81167086	     -0.92804793	     10.24152384	     -0.66841697	     -2.92148447	     -8.50293534	    -19.45182341	     -6.25923266	     26.50326790	     20.87535418	     13.49693253	      3.97333875	     -8.21645454
      4.09000000	    -16.21329850	     -4.04119944	      4.80595999	     -0.21764428	     -0.03076614	     -0.03178873	     36.54270295	      3.59380161	     -6.78218328	    -11.42313773	    -13.93762813	     -1.37865253	      9.33801042	     -0.41496280	     -3.55172902	     -9.10568937	    -20.39676369	     -7.34878507	     27.42579042	     21.56453077	     13.57019612	      4.38369982	     -8.16851404
      4.09500000	    -16.18854926	     -4.36901449	      4.87574351	     -0.21112804	     -0.03034089	     -0.03179843	     36.42408669	      3.86591533	     -6.88499201	    -11.90578386	    -13.94549875	     -1.78385220	      8.45258832	     -0.15778950	     -4.19611003	     -9.69977940	    -21.33289311	     -8.66200464	     28.23152004	     22.44772354	     13.65077832	      4.78978624	     -8.14637101
      4.10000000	    -16.17660226	     -4.66544876	      4.94662818	     -0.20463075	     -0.02989506	     -0.03180697	     36.30951422	      4.10120282	     -7.01739728	    -12.36975593	    -13.88036113	     -2.08130021	      7.72977935	      0.14998926	     -4.82629586	    -10.32000639	    -22.31012391	    -10.13196006	     29.04239605	     23.38917118	     13.74554128	      5.16418685	     -8.13995210
      4.10500000	    -16.20620016	     -4.95264044	      5.01360188	     -0.19817940	     -0.02948252	     -0.03180921	     36.23491996	      4.30893112	     -7.29730541	    -12.79345665	    -13.84473794	     -2.18961656	      7.60371410	      0.56562468	     -5.46680760	    -10.92864736	    -23.42966811	    -11.51736676	     29.95727228	     23.78916516	     13.88298791	      5.52375877	     -8.10233574
      4.11000000	    -16.18335568	     -5.19619120	      5.01043433	     -0.19179545	     -0.02901859	     -0.03159166	     36.08081761	      4.56657620	     -7.29852704	    -13.17775964	    -13.74738211	     -2.50348409	      7.29790415	      0.92449230	     -6.09933233	    -11.71920094	    -24.45117568	    -13.44265369	     30.60088514	     25.27979941	     13.93947332	      5.85177337	     -7.98082210
      4.11500000	    -16.20152338	     -5.42727031	      5.03482688	     -0.18544391	     -0.02857925	     -0.03140377	     35.96150267	      4.77774586	     -7.46067148	    -13.54009410	    -13.57871539	     -2.53522739	      7.30977776	      1.38555487	     -6.73160820	    -12.41923733	    -25.58522576	    -15.31622547	     31.29782046	     26.23307118	     14.04603557	      6.14771468	     -7.89663673
      4.12000000	    -16.23044893	     -5.63696587	      5.04192486	     -0.17912323	     -0.02815501	     -0.03112748	     35.83039418	      4.99680514	     -7.54964315	    -13.85517621	    -13.39168018	     -2.59766081	      7.48150947	      1.88784498	     -7.35976195	    -13.10284167	    -26.74194525	    -17.34913489	     31.90314311	     27.23648224	     14.16058750	      6.41770664	     -7.78200420
